<svg width="286" height="27" viewBox="0 0 286 27" fill="none" xmlns="http://www.w3.org/2000/svg">
<path d="M16.28 3.96C16.408 4.472 16.472 5.112 16.472 5.88C16.472 6.616 16.408 7.256 16.28 7.8C16.408 8.312 16.472 8.952 16.472 9.72C16.472 10.456 16.408 11.096 16.28 11.64C16.408 12.152 16.472 12.792 16.472 13.56C16.472 14.296 16.408 14.936 16.28 15.48C16.408 15.992 16.472 16.632 16.472 17.4C16.472 18.136 16.408 18.776 16.28 19.32C16.408 19.832 16.472 20.472 16.472 21.24C16.472 21.976 16.408 22.616 16.28 23.16C16.408 23.672 16.472 24.312 16.472 25.08C16.472 25.816 16.408 26.456 16.28 27H12.44C12.312 26.456 12.248 25.816 12.248 25.08C12.248 24.312 12.312 23.672 12.44 23.16C12.312 22.616 12.248 21.976 12.248 21.24C12.248 20.472 12.312 19.832 12.44 19.32C12.312 18.776 12.248 18.136 12.248 17.4C12.248 16.632 12.312 15.992 12.44 15.48H4.76C4.888 15.992 4.952 16.632 4.952 17.4C4.952 18.136 4.888 18.776 4.76 19.32C4.888 19.832 4.952 20.472 4.952 21.24C4.952 21.976 4.888 22.616 4.76 23.16C4.888 23.672 4.952 24.312 4.952 25.08C4.952 25.816 4.888 26.456 4.76 27H0.92C0.792 26.456 0.728 25.816 0.728 25.08C0.728 24.312 0.792 23.672 0.92 23.16C0.792 22.616 0.728 21.976 0.728 21.24C0.728 20.472 0.792 19.832 0.92 19.32C0.792 18.776 0.728 18.136 0.728 17.4C0.728 16.632 0.792 15.992 0.92 15.48C0.792 14.936 0.728 14.296 0.728 13.56C0.728 12.792 0.792 12.152 0.92 11.64C0.792 11.096 0.728 10.456 0.728 9.72C0.728 8.952 0.792 8.312 0.92 7.8C0.792 7.256 0.728 6.616 0.728 5.88C0.728 5.112 0.792 4.472 0.92 3.96C0.792 3.416 0.728 2.776 0.728 2.04C0.728 1.272 0.792 0.631999 0.92 0.12H4.76C4.888 0.631999 4.952 1.272 4.952 2.04C4.952 2.776 4.888 3.416 4.76 3.96C4.888 4.472 4.952 5.112 4.952 5.88C4.952 6.616 4.888 7.256 4.76 7.8C4.888 8.312 4.952 8.952 4.952 9.72C4.952 10.456 4.888 11.096 4.76 11.64H12.44C12.312 11.096 12.248 10.456 12.248 9.72C12.248 8.952 12.312 8.312 12.44 7.8C12.312 7.256 12.248 6.616 12.248 5.88C12.248 5.112 12.312 4.472 12.44 3.96C12.312 3.416 12.248 2.776 12.248 2.04C12.248 1.272 12.312 0.631999 12.44 0.12H16.28C16.408 0.631999 16.472 1.272 16.472 2.04C16.472 2.776 16.408 3.416 16.28 3.96ZM35.6908 13.56C35.6908 14.296 35.6268 14.936 35.4988 15.48C35.6268 15.992 35.6908 16.632 35.6908 17.4C35.6908 18.136 35.6268 18.776 35.4988 19.32H25.4188C25.5468 19.832 25.6108 20.472 25.6108 21.24C25.6108 21.976 25.5468 22.616 25.4188 23.16H33.5788C33.7068 23.672 33.7708 24.312 33.7708 25.08C33.7708 25.816 33.7068 26.456 33.5788 27H23.9788C23.8508 26.456 23.7868 25.816 23.7868 25.08C23.7868 24.312 23.8508 23.672 23.9788 23.16H21.5788C21.4507 22.616 21.3867 21.976 21.3867 21.24C21.3867 20.472 21.4507 19.832 21.5788 19.32H20.1388C20.0108 18.776 19.9468 18.136 19.9468 17.4C19.9468 16.632 20.0108 15.992 20.1388 15.48H21.5788C21.4507 14.936 21.3867 14.296 21.3867 13.56C21.3867 12.792 21.4507 12.152 21.5788 11.64H23.9788C23.8508 11.096 23.7868 10.456 23.7868 9.72C23.7868 8.952 23.8508 8.312 23.9788 7.8H33.5788C33.7068 8.312 33.7708 8.952 33.7708 9.72C33.7708 10.456 33.7068 11.096 33.5788 11.64H35.4988C35.6268 12.152 35.6908 12.792 35.6908 13.56ZM31.6588 15.48C31.5308 14.936 31.4668 14.296 31.4668 13.56C31.4668 12.792 31.5308 12.152 31.6588 11.64H25.4188C25.5468 12.152 25.6108 12.792 25.6108 13.56C25.6108 14.296 25.5468 14.936 25.4188 15.48H31.6588ZM54.7175 11.64C54.8455 12.152 54.9095 12.792 54.9095 13.56C54.9095 14.296 54.8455 14.936 54.7175 15.48H50.8775C50.7495 14.936 50.6855 14.296 50.6855 13.56C50.6855 12.792 50.7495 12.152 50.8775 11.64H47.5175C47.6455 12.152 47.7095 12.792 47.7095 13.56C47.7095 14.296 47.6455 14.936 47.5175 15.48H46.0775C46.2055 15.992 46.2695 16.632 46.2695 17.4C46.2695 18.136 46.2055 18.776 46.0775 19.32C46.2055 19.832 46.2695 20.472 46.2695 21.24C46.2695 21.976 46.2055 22.616 46.0775 23.16H48.9575C49.0855 23.672 49.1495 24.312 49.1495 25.08C49.1495 25.816 49.0855 26.456 48.9575 27H39.3575C39.2295 26.456 39.1655 25.816 39.1655 25.08C39.1655 24.312 39.2295 23.672 39.3575 23.16H42.2375C42.1095 22.616 42.0455 21.976 42.0455 21.24C42.0455 20.472 42.1095 19.832 42.2375 19.32C42.1095 18.776 42.0455 18.136 42.0455 17.4C42.0455 16.632 42.1095 15.992 42.2375 15.48C42.1095 14.936 42.0455 14.296 42.0455 13.56C42.0455 12.792 42.1095 12.152 42.2375 11.64H39.3575C39.2295 11.096 39.1655 10.456 39.1655 9.72C39.1655 8.952 39.2295 8.312 39.3575 7.8H44.1575C44.2855 8.312 44.3495 8.952 44.3495 9.72C44.3495 10.456 44.2855 11.096 44.1575 11.64H46.0775C45.9495 11.096 45.8855 10.456 45.8855 9.72C45.8855 8.952 45.9495 8.312 46.0775 7.8H53.2775C53.4055 8.312 53.4695 8.952 53.4695 9.72C53.4695 10.456 53.4055 11.096 53.2775 11.64H54.7175ZM74.1283 17.4C74.1283 18.136 74.0643 18.776 73.9363 19.32H72.4963C72.6243 19.832 72.6883 20.472 72.6883 21.24C72.6883 21.976 72.6243 22.616 72.4963 23.16H70.0963C70.2243 23.672 70.2883 24.312 70.2883 25.08C70.2883 25.816 70.2243 26.456 70.0963 27H62.4163C62.2883 26.456 62.2243 25.816 62.2243 25.08C62.2243 24.312 62.2883 23.672 62.4163 23.16H60.0163C59.8882 22.616 59.8242 21.976 59.8242 21.24C59.8242 20.472 59.8882 19.832 60.0163 19.32H58.5763C58.4483 18.776 58.3843 18.136 58.3843 17.4C58.3843 16.632 58.4483 15.992 58.5763 15.48H60.0163C59.8882 14.936 59.8242 14.296 59.8242 13.56C59.8242 12.792 59.8882 12.152 60.0163 11.64H62.4163C62.2883 11.096 62.2243 10.456 62.2243 9.72C62.2243 8.952 62.2883 8.312 62.4163 7.8H70.0963C70.2243 8.312 70.2883 8.952 70.2883 9.72C70.2883 10.456 70.2243 11.096 70.0963 11.64H72.4963C72.6243 12.152 72.6883 12.792 72.6883 13.56C72.6883 14.296 72.6243 14.936 72.4963 15.48H73.9363C74.0643 15.992 74.1283 16.632 74.1283 17.4ZM70.0963 19.32C69.9683 18.776 69.9043 18.136 69.9043 17.4C69.9043 16.632 69.9683 15.992 70.0963 15.48H68.6562C68.5283 14.936 68.4643 14.296 68.4643 13.56C68.4643 12.792 68.5283 12.152 68.6562 11.64H63.8563C63.9843 12.152 64.0483 12.792 64.0483 13.56C64.0483 14.296 63.9843 14.936 63.8563 15.48H62.4163C62.5443 15.992 62.6083 16.632 62.6083 17.4C62.6083 18.136 62.5443 18.776 62.4163 19.32H63.8563C63.9843 19.832 64.0483 20.472 64.0483 21.24C64.0483 21.976 63.9843 22.616 63.8563 23.16H68.6562C68.5283 22.616 68.4643 21.976 68.4643 21.24C68.4643 20.472 68.5283 19.832 68.6562 19.32H70.0963ZM93.347 13.56C93.347 14.296 93.283 14.936 93.155 15.48C93.283 15.992 93.347 16.632 93.347 17.4C93.347 18.136 93.283 18.776 93.155 19.32H83.075C83.203 19.832 83.267 20.472 83.267 21.24C83.267 21.976 83.203 22.616 83.075 23.16H91.235C91.363 23.672 91.427 24.312 91.427 25.08C91.427 25.816 91.363 26.456 91.235 27H81.635C81.507 26.456 81.443 25.816 81.443 25.08C81.443 24.312 81.507 23.672 81.635 23.16H79.235C79.107 22.616 79.043 21.976 79.043 21.24C79.043 20.472 79.107 19.832 79.235 19.32H77.795C77.667 18.776 77.603 18.136 77.603 17.4C77.603 16.632 77.667 15.992 77.795 15.48H79.235C79.107 14.936 79.043 14.296 79.043 13.56C79.043 12.792 79.107 12.152 79.235 11.64H81.635C81.507 11.096 81.443 10.456 81.443 9.72C81.443 8.952 81.507 8.312 81.635 7.8H91.235C91.363 8.312 91.427 8.952 91.427 9.72C91.427 10.456 91.363 11.096 91.235 11.64H93.155C93.283 12.152 93.347 12.792 93.347 13.56ZM89.315 15.48C89.187 14.936 89.123 14.296 89.123 13.56C89.123 12.792 89.187 12.152 89.315 11.64H83.075C83.203 12.152 83.267 12.792 83.267 13.56C83.267 14.296 83.203 14.936 83.075 15.48H89.315ZM111.606 21.24C111.606 21.976 111.542 22.616 111.414 23.16H109.494C109.622 23.672 109.686 24.312 109.686 25.08C109.686 25.816 109.622 26.456 109.494 27H98.9338C98.8058 26.456 98.7418 25.816 98.7418 25.08C98.7418 24.312 98.8058 23.672 98.9338 23.16H107.574C107.446 22.616 107.382 21.976 107.382 21.24C107.382 20.472 107.446 19.832 107.574 19.32H99.8938C99.7658 18.776 99.7018 18.136 99.7018 17.4C99.7018 16.632 99.7658 15.992 99.8938 15.48H97.9738C97.8458 14.936 97.7818 14.296 97.7818 13.56C97.7818 12.792 97.8458 12.152 97.9738 11.64H99.8938C99.7658 11.096 99.7018 10.456 99.7018 9.72C99.7018 8.952 99.7658 8.312 99.8938 7.8H110.454C110.582 8.312 110.646 8.952 110.646 9.72C110.646 10.456 110.582 11.096 110.454 11.64H101.814C101.942 12.152 102.006 12.792 102.006 13.56C102.006 14.296 101.942 14.936 101.814 15.48H109.494C109.622 15.992 109.686 16.632 109.686 17.4C109.686 18.136 109.622 18.776 109.494 19.32H111.414C111.542 19.832 111.606 20.472 111.606 21.24ZM148.891 11.64C149.019 12.152 149.083 12.792 149.083 13.56C149.083 14.296 149.019 14.936 148.891 15.48H141.211C141.339 15.992 141.403 16.632 141.403 17.4C141.403 18.136 141.339 18.776 141.211 19.32C141.339 19.832 141.403 20.472 141.403 21.24C141.403 21.976 141.339 22.616 141.211 23.16C141.339 23.672 141.403 24.312 141.403 25.08C141.403 25.816 141.339 26.456 141.211 27H137.371C137.243 26.456 137.179 25.816 137.179 25.08C137.179 24.312 137.243 23.672 137.371 23.16C137.243 22.616 137.179 21.976 137.179 21.24C137.179 20.472 137.243 19.832 137.371 19.32C137.243 18.776 137.179 18.136 137.179 17.4C137.179 16.632 137.243 15.992 137.371 15.48C137.243 14.936 137.179 14.296 137.179 13.56C137.179 12.792 137.243 12.152 137.371 11.64C137.243 11.096 137.179 10.456 137.179 9.72C137.179 8.952 137.243 8.312 137.371 7.8C137.243 7.256 137.179 6.616 137.179 5.88C137.179 5.112 137.243 4.472 137.371 3.96C137.243 3.416 137.179 2.776 137.179 2.04C137.179 1.272 137.243 0.631999 137.371 0.12H148.891C149.019 0.631999 149.083 1.272 149.083 2.04C149.083 2.776 149.019 3.416 148.891 3.96H141.211C141.339 4.472 141.403 5.112 141.403 5.88C141.403 6.616 141.339 7.256 141.211 7.8C141.339 8.312 141.403 8.952 141.403 9.72C141.403 10.456 141.339 11.096 141.211 11.64H148.891ZM170.222 17.4C170.222 18.136 170.158 18.776 170.03 19.32H168.59C168.718 19.832 168.782 20.472 168.782 21.24C168.782 21.976 168.718 22.616 168.59 23.16H166.19C166.318 23.672 166.382 24.312 166.382 25.08C166.382 25.816 166.318 26.456 166.19 27H158.51C158.382 26.456 158.318 25.816 158.318 25.08C158.318 24.312 158.382 23.672 158.51 23.16H156.11C155.982 22.616 155.918 21.976 155.918 21.24C155.918 20.472 155.982 19.832 156.11 19.32H154.67C154.542 18.776 154.478 18.136 154.478 17.4C154.478 16.632 154.542 15.992 154.67 15.48H156.11C155.982 14.936 155.918 14.296 155.918 13.56C155.918 12.792 155.982 12.152 156.11 11.64H158.51C158.382 11.096 158.318 10.456 158.318 9.72C158.318 8.952 158.382 8.312 158.51 7.8H166.19C166.318 8.312 166.382 8.952 166.382 9.72C166.382 10.456 166.318 11.096 166.19 11.64H168.59C168.718 12.152 168.782 12.792 168.782 13.56C168.782 14.296 168.718 14.936 168.59 15.48H170.03C170.158 15.992 170.222 16.632 170.222 17.4ZM166.19 19.32C166.062 18.776 165.998 18.136 165.998 17.4C165.998 16.632 166.062 15.992 166.19 15.48H164.75C164.622 14.936 164.558 14.296 164.558 13.56C164.558 12.792 164.622 12.152 164.75 11.64H159.95C160.078 12.152 160.142 12.792 160.142 13.56C160.142 14.296 160.078 14.936 159.95 15.48H158.51C158.638 15.992 158.702 16.632 158.702 17.4C158.702 18.136 158.638 18.776 158.51 19.32H159.95C160.078 19.832 160.142 20.472 160.142 21.24C160.142 21.976 160.078 22.616 159.95 23.16H164.75C164.622 22.616 164.558 21.976 164.558 21.24C164.558 20.472 164.622 19.832 164.75 19.32H166.19ZM189.249 11.64C189.377 12.152 189.441 12.792 189.441 13.56C189.441 14.296 189.377 14.936 189.249 15.48H185.409C185.281 14.936 185.217 14.296 185.217 13.56C185.217 12.792 185.281 12.152 185.409 11.64H182.049C182.177 12.152 182.241 12.792 182.241 13.56C182.241 14.296 182.177 14.936 182.049 15.48H180.609C180.737 15.992 180.801 16.632 180.801 17.4C180.801 18.136 180.737 18.776 180.609 19.32C180.737 19.832 180.801 20.472 180.801 21.24C180.801 21.976 180.737 22.616 180.609 23.16H183.489C183.617 23.672 183.681 24.312 183.681 25.08C183.681 25.816 183.617 26.456 183.489 27H173.889C173.761 26.456 173.697 25.816 173.697 25.08C173.697 24.312 173.761 23.672 173.889 23.16H176.769C176.641 22.616 176.577 21.976 176.577 21.24C176.577 20.472 176.641 19.832 176.769 19.32C176.641 18.776 176.577 18.136 176.577 17.4C176.577 16.632 176.641 15.992 176.769 15.48C176.641 14.936 176.577 14.296 176.577 13.56C176.577 12.792 176.641 12.152 176.769 11.64H173.889C173.761 11.096 173.697 10.456 173.697 9.72C173.697 8.952 173.761 8.312 173.889 7.8H178.689C178.817 8.312 178.881 8.952 178.881 9.72C178.881 10.456 178.817 11.096 178.689 11.64H180.609C180.481 11.096 180.417 10.456 180.417 9.72C180.417 8.952 180.481 8.312 180.609 7.8H187.809C187.937 8.312 188.001 8.952 188.001 9.72C188.001 10.456 187.937 11.096 187.809 11.64H189.249ZM227.686 15.48C227.814 15.992 227.878 16.632 227.878 17.4C227.878 18.136 227.814 18.776 227.686 19.32C227.814 19.832 227.878 20.472 227.878 21.24C227.878 21.976 227.814 22.616 227.686 23.16H225.766C225.894 23.672 225.958 24.312 225.958 25.08C225.958 25.816 225.894 26.456 225.766 27H214.246C214.118 26.456 214.054 25.816 214.054 25.08C214.054 24.312 214.118 23.672 214.246 23.16H212.326C212.198 22.616 212.134 21.976 212.134 21.24C212.134 20.472 212.198 19.832 212.326 19.32H216.166C216.294 19.832 216.358 20.472 216.358 21.24C216.358 21.976 216.294 22.616 216.166 23.16H223.846C223.718 22.616 223.654 21.976 223.654 21.24C223.654 20.472 223.718 19.832 223.846 19.32C223.718 18.776 223.654 18.136 223.654 17.4C223.654 16.632 223.718 15.992 223.846 15.48H214.246C214.118 14.936 214.054 14.296 214.054 13.56C214.054 12.792 214.118 12.152 214.246 11.64H212.326C212.198 11.096 212.134 10.456 212.134 9.72C212.134 8.952 212.198 8.312 212.326 7.8C212.198 7.256 212.134 6.616 212.134 5.88C212.134 5.112 212.198 4.472 212.326 3.96H214.246C214.118 3.416 214.054 2.776 214.054 2.04C214.054 1.272 214.118 0.631999 214.246 0.12H225.766C225.894 0.631999 225.958 1.272 225.958 2.04C225.958 2.776 225.894 3.416 225.766 3.96H227.686C227.814 4.472 227.878 5.112 227.878 5.88C227.878 6.616 227.814 7.256 227.686 7.8H223.846C223.718 7.256 223.654 6.616 223.654 5.88C223.654 5.112 223.718 4.472 223.846 3.96H216.166C216.294 4.472 216.358 5.112 216.358 5.88C216.358 6.616 216.294 7.256 216.166 7.8C216.294 8.312 216.358 8.952 216.358 9.72C216.358 10.456 216.294 11.096 216.166 11.64H225.766C225.894 12.152 225.958 12.792 225.958 13.56C225.958 14.296 225.894 14.936 225.766 15.48H227.686ZM246.905 23.16C247.033 23.672 247.097 24.312 247.097 25.08C247.097 25.816 247.033 26.456 246.905 27H243.065C242.937 26.456 242.873 25.816 242.873 25.08C242.873 24.312 242.937 23.672 243.065 23.16H241.145C241.017 22.616 240.953 21.976 240.953 21.24C240.953 20.472 241.017 19.832 241.145 19.32H235.385C235.513 19.832 235.577 20.472 235.577 21.24C235.577 21.976 235.513 22.616 235.385 23.16H241.145C241.273 23.672 241.337 24.312 241.337 25.08C241.337 25.816 241.273 26.456 241.145 27H233.465C233.337 26.456 233.273 25.816 233.273 25.08C233.273 24.312 233.337 23.672 233.465 23.16H231.545C231.417 22.616 231.353 21.976 231.353 21.24C231.353 20.472 231.417 19.832 231.545 19.32H233.465C233.337 18.776 233.273 18.136 233.273 17.4C233.273 16.632 233.337 15.992 233.465 15.48H241.145C241.017 14.936 240.953 14.296 240.953 13.56C240.953 12.792 241.017 12.152 241.145 11.64H234.425C234.297 11.096 234.233 10.456 234.233 9.72C234.233 8.952 234.297 8.312 234.425 7.8H243.065C243.193 8.312 243.257 8.952 243.257 9.72C243.257 10.456 243.193 11.096 243.065 11.64H244.985C245.113 12.152 245.177 12.792 245.177 13.56C245.177 14.296 245.113 14.936 244.985 15.48C245.113 15.992 245.177 16.632 245.177 17.4C245.177 18.136 245.113 18.776 244.985 19.32C245.113 19.832 245.177 20.472 245.177 21.24C245.177 21.976 245.113 22.616 244.985 23.16H246.905ZM264.204 23.16C264.332 23.672 264.396 24.312 264.396 25.08C264.396 25.816 264.332 26.456 264.204 27H252.684C252.556 26.456 252.492 25.816 252.492 25.08C252.492 24.312 252.556 23.672 252.684 23.16H256.524C256.396 22.616 256.332 21.976 256.332 21.24C256.332 20.472 256.396 19.832 256.524 19.32C256.396 18.776 256.332 18.136 256.332 17.4C256.332 16.632 256.396 15.992 256.524 15.48C256.396 14.936 256.332 14.296 256.332 13.56C256.332 12.792 256.396 12.152 256.524 11.64C256.396 11.096 256.332 10.456 256.332 9.72C256.332 8.952 256.396 8.312 256.524 7.8C256.396 7.256 256.332 6.616 256.332 5.88C256.332 5.112 256.396 4.472 256.524 3.96H253.644C253.516 3.416 253.452 2.776 253.452 2.04C253.452 1.272 253.516 0.631999 253.644 0.12H260.364C260.492 0.631999 260.556 1.272 260.556 2.04C260.556 2.776 260.492 3.416 260.364 3.96C260.492 4.472 260.556 5.112 260.556 5.88C260.556 6.616 260.492 7.256 260.364 7.8C260.492 8.312 260.556 8.952 260.556 9.72C260.556 10.456 260.492 11.096 260.364 11.64C260.492 12.152 260.556 12.792 260.556 13.56C260.556 14.296 260.492 14.936 260.364 15.48C260.492 15.992 260.556 16.632 260.556 17.4C260.556 18.136 260.492 18.776 260.364 19.32C260.492 19.832 260.556 20.472 260.556 21.24C260.556 21.976 260.492 22.616 260.364 23.16H264.204ZM285.535 13.56C285.535 14.296 285.471 14.936 285.343 15.48C285.471 15.992 285.535 16.632 285.535 17.4C285.535 18.136 285.471 18.776 285.343 19.32H275.263C275.391 19.832 275.455 20.472 275.455 21.24C275.455 21.976 275.391 22.616 275.263 23.16H283.423C283.551 23.672 283.615 24.312 283.615 25.08C283.615 25.816 283.551 26.456 283.423 27H273.823C273.695 26.456 273.631 25.816 273.631 25.08C273.631 24.312 273.695 23.672 273.823 23.16H271.423C271.294 22.616 271.23 21.976 271.23 21.24C271.23 20.472 271.294 19.832 271.423 19.32H269.983C269.855 18.776 269.791 18.136 269.791 17.4C269.791 16.632 269.855 15.992 269.983 15.48H271.423C271.294 14.936 271.23 14.296 271.23 13.56C271.23 12.792 271.294 12.152 271.423 11.64H273.823C273.695 11.096 273.631 10.456 273.631 9.72C273.631 8.952 273.695 8.312 273.823 7.8H283.423C283.551 8.312 283.615 8.952 283.615 9.72C283.615 10.456 283.551 11.096 283.423 11.64H285.343C285.471 12.152 285.535 12.792 285.535 13.56ZM281.503 15.48C281.375 14.936 281.311 14.296 281.311 13.56C281.311 12.792 281.375 12.152 281.503 11.64H275.263C275.391 12.152 275.455 12.792 275.455 13.56C275.455 14.296 275.391 14.936 275.263 15.48H281.503Z" fill="#4C51BF"/>
</svg>
